<?xml version="1.0" encoding="UTF-8" standalone="no"?>
<!-- Created with Inkscape (http://www.inkscape.org/) -->

<svg
   width="210mm"
   height="297mm"
   viewBox="0 0 210 297"
   version="1.1"
   id="svg1"
   inkscape:version="1.3.2 (091e20e, 2023-11-25, custom)"
   sodipodi:docname="drag_handle.svg"
   xmlns:inkscape="http://www.inkscape.org/namespaces/inkscape"
   xmlns:sodipodi="http://sodipodi.sourceforge.net/DTD/sodipodi-0.dtd"
   xmlns="http://www.w3.org/2000/svg"
   xmlns:svg="http://www.w3.org/2000/svg">
  <sodipodi:namedview
     id="namedview1"
     pagecolor="#ffffff"
     bordercolor="#000000"
     borderopacity="0.25"
     inkscape:showpageshadow="2"
     inkscape:pageopacity="0.0"
     inkscape:pagecheckerboard="0"
     inkscape:deskcolor="#d1d1d1"
     inkscape:document-units="mm"
     inkscape:zoom="0.52057229"
     inkscape:cx="572.44691"
     inkscape:cy="509.05514"
     inkscape:window-width="1920"
     inkscape:window-height="992"
     inkscape:window-x="-8"
     inkscape:window-y="-8"
     inkscape:window-maximized="1"
     inkscape:current-layer="layer1" />
  <defs
     id="defs1" />
  <g
     inkscape:label="Layer 1"
     inkscape:groupmode="layer"
     id="layer1">
    <path
       style="fill:#000000;fill-opacity:1;stroke-width:0;stroke-linecap:round;stroke-linejoin:round;paint-order:fill markers stroke"
       id="path1"
       sodipodi:type="arc"
       sodipodi:cx="58.806187"
       sodipodi:cy="147.39056"
       sodipodi:rx="24.625628"
       sodipodi:ry="24.625628"
       sodipodi:start="0"
       sodipodi:end="6.2070559"
       sodipodi:open="true"
       sodipodi:arc-type="arc"
       d="M 83.431814,147.39056 A 24.625628,24.625628 0 0 1 59.274842,172.01173 24.625628,24.625628 0 0 1 34.198397,148.3277 24.625628,24.625628 0 0 1 57.4009,122.80507 24.625628,24.625628 0 0 1 83.360487,145.51764" />
    <path
       style="fill:#000000;fill-opacity:1;stroke-width:0;stroke-linecap:round;stroke-linejoin:round;paint-order:fill markers stroke"
       id="path1-6"
       sodipodi:type="arc"
       sodipodi:cx="147.93559"
       sodipodi:cy="147.39056"
       sodipodi:rx="24.625628"
       sodipodi:ry="24.625628"
       sodipodi:start="0"
       sodipodi:end="6.2070559"
       sodipodi:open="true"
       sodipodi:arc-type="arc"
       d="m 172.56122,147.39056 a 24.625628,24.625628 0 0 1 -24.15697,24.62117 24.625628,24.625628 0 0 1 -25.07645,-23.68403 24.625628,24.625628 0 0 1 23.20251,-25.52263 24.625628,24.625628 0 0 1 25.95958,22.71257" />
    <path
       style="fill:#000000;fill-opacity:1;stroke-width:0;stroke-linecap:round;stroke-linejoin:round;paint-order:fill markers stroke"
       id="path1-4"
       sodipodi:type="arc"
       sodipodi:cx="58.806187"
       sodipodi:cy="67.945663"
       sodipodi:rx="24.625628"
       sodipodi:ry="24.625628"
       sodipodi:start="0"
       sodipodi:end="6.2070559"
       sodipodi:open="true"
       sodipodi:arc-type="arc"
       d="M 83.431814,67.945663 A 24.625628,24.625628 0 0 1 59.274842,92.566831 24.625628,24.625628 0 0 1 34.198397,68.882804 24.625628,24.625628 0 0 1 57.4009,43.360166 24.625628,24.625628 0 0 1 83.360487,66.072739" />
    <path
       style="fill:#000000;fill-opacity:1;stroke-width:0;stroke-linecap:round;stroke-linejoin:round;paint-order:fill markers stroke"
       id="path1-6-7"
       sodipodi:type="arc"
       sodipodi:cx="147.93559"
       sodipodi:cy="67.945663"
       sodipodi:rx="24.625628"
       sodipodi:ry="24.625628"
       sodipodi:start="0"
       sodipodi:end="6.2070559"
       sodipodi:open="true"
       sodipodi:arc-type="arc"
       d="M 172.56122,67.945663 A 24.625628,24.625628 0 0 1 148.40425,92.566831 24.625628,24.625628 0 0 1 123.3278,68.882804 24.625628,24.625628 0 0 1 146.53031,43.360166 24.625628,24.625628 0 0 1 172.48989,66.072739" />
    <path
       style="fill:#000000;fill-opacity:1;stroke-width:0;stroke-linecap:round;stroke-linejoin:round;paint-order:fill markers stroke"
       id="path1-4-7"
       sodipodi:type="arc"
       sodipodi:cx="58.806187"
       sodipodi:cy="226.83546"
       sodipodi:rx="24.625628"
       sodipodi:ry="24.625628"
       sodipodi:start="0"
       sodipodi:end="6.2070559"
       sodipodi:open="true"
       sodipodi:arc-type="arc"
       d="M 83.431814,226.83546 A 24.625628,24.625628 0 0 1 59.274842,251.45663 24.625628,24.625628 0 0 1 34.198397,227.77261 24.625628,24.625628 0 0 1 57.4009,202.24997 24.625628,24.625628 0 0 1 83.360487,224.96254" />
    <path
       style="fill:#000000;fill-opacity:1;stroke-width:0;stroke-linecap:round;stroke-linejoin:round;paint-order:fill markers stroke"
       id="path1-6-7-7"
       sodipodi:type="arc"
       sodipodi:cx="147.93559"
       sodipodi:cy="226.83546"
       sodipodi:rx="24.625628"
       sodipodi:ry="24.625628"
       sodipodi:start="0"
       sodipodi:end="6.2070559"
       sodipodi:open="true"
       sodipodi:arc-type="arc"
       d="m 172.56122,226.83546 a 24.625628,24.625628 0 0 1 -24.15697,24.62117 24.625628,24.625628 0 0 1 -25.07645,-23.68402 24.625628,24.625628 0 0 1 23.20251,-25.52264 24.625628,24.625628 0 0 1 25.95958,22.71257" />
  </g>
</svg>
